<?xml version="1.0" encoding="UTF-8" standalone="no"?>
<!DOCTYPE svg PUBLIC "-//W3C//DTD SVG 1.1//EN"
 "http://www.w3.org/Graphics/SVG/1.1/DTD/svg11.dtd">
<!-- Generated by graphviz version 2.43.0 (0)
 -->
<!-- Title: FinQAAmortizationKG Pages: 1 -->
<svg width="1209pt" height="358pt"
 viewBox="0.00 0.00 1209.44 358.40" xmlns="http://www.w3.org/2000/svg" xmlns:xlink="http://www.w3.org/1999/xlink">
<g id="graph0" class="graph" transform="scale(1 1) rotate(0) translate(25.2 333.2)">
<title>FinQAAmortizationKG</title>
<polygon fill="white" stroke="transparent" points="-25.2,25.2 -25.2,-333.2 1184.24,-333.2 1184.24,25.2 -25.2,25.2"/>
<text text-anchor="middle" x="579.52" y="-289.6" font-family="Helvetica Bold" font-size="18.00">Evidence&#45;grounded Online KG — FinQA amortization average (2015–2019)</text>
<!-- q -->
<g id="node1" class="node">
<title>q</title>
<path fill="#dbeafe" stroke="#2563eb" d="M169,-253C169,-253 12,-253 12,-253 6,-253 0,-247 0,-241 0,-241 0,-221 0,-221 0,-215 6,-209 12,-209 12,-209 169,-209 169,-209 175,-209 181,-215 181,-221 181,-221 181,-241 181,-241 181,-247 175,-253 169,-253"/>
<text text-anchor="middle" x="90.5" y="-240.2" font-family="Helvetica,sans-Serif" font-size="11.00">Question</text>
<text text-anchor="middle" x="90.5" y="-228.2" font-family="Helvetica,sans-Serif" font-size="11.00">Average amortization amount</text>
<text text-anchor="middle" x="90.5" y="-216.2" font-family="Helvetica,sans-Serif" font-size="11.00">from 2015–2019?</text>
</g>
<!-- y2015 -->
<g id="node2" class="node">
<title>y2015</title>
<path fill="#f8fafc" stroke="#334155" d="M322,-280C322,-280 292,-280 292,-280 286,-280 280,-274 280,-268 280,-268 280,-256 280,-256 280,-250 286,-244 292,-244 292,-244 322,-244 322,-244 328,-244 334,-250 334,-256 334,-256 334,-268 334,-268 334,-274 328,-280 322,-280"/>
<text text-anchor="middle" x="307" y="-259.2" font-family="Helvetica,sans-Serif" font-size="11.00">2015</text>
</g>
<!-- q&#45;&gt;y2015 -->
<g id="edge1" class="edge">
<title>q&#45;&gt;y2015</title>
<path fill="none" stroke="#64748b" stroke-dasharray="5,2" d="M181.22,-243.97C212.23,-248.45 245.23,-253.22 269.51,-256.73"/>
<polygon fill="#64748b" stroke="#64748b" points="269.28,-260.23 279.68,-258.2 270.28,-253.3 269.28,-260.23"/>
<text text-anchor="middle" x="230.5" y="-256.8" font-family="Helvetica,sans-Serif" font-size="9.00">range start</text>
</g>
<!-- y2019 -->
<g id="node6" class="node">
<title>y2019</title>
<path fill="#f8fafc" stroke="#334155" d="M322,-219C322,-219 292,-219 292,-219 286,-219 280,-213 280,-207 280,-207 280,-195 280,-195 280,-189 286,-183 292,-183 292,-183 322,-183 322,-183 328,-183 334,-189 334,-195 334,-195 334,-207 334,-207 334,-213 328,-219 322,-219"/>
<text text-anchor="middle" x="307" y="-198.2" font-family="Helvetica,sans-Serif" font-size="11.00">2019</text>
</g>
<!-- q&#45;&gt;y2019 -->
<g id="edge2" class="edge">
<title>q&#45;&gt;y2019</title>
<path fill="none" stroke="#64748b" stroke-dasharray="5,2" d="M181.02,-218.36C189.13,-217.22 197.22,-216.09 205,-215 226.45,-212 250.46,-208.67 269.69,-206.01"/>
<polygon fill="#64748b" stroke="#64748b" points="270.41,-209.45 279.84,-204.61 269.45,-202.51 270.41,-209.45"/>
<text text-anchor="middle" x="230.5" y="-217.8" font-family="Helvetica,sans-Serif" font-size="9.00">range end</text>
</g>
<!-- v2015 -->
<g id="node7" class="node">
<title>v2015</title>
<path fill="#dcfce7" stroke="#16a34a" d="M603,-280C603,-280 542,-280 542,-280 536,-280 530,-274 530,-268 530,-268 530,-256 530,-256 530,-250 536,-244 542,-244 542,-244 603,-244 603,-244 609,-244 615,-250 615,-256 615,-256 615,-268 615,-268 615,-274 609,-280 603,-280"/>
<text text-anchor="middle" x="572.5" y="-265.2" font-family="Helvetica,sans-Serif" font-size="11.00">$45 million</text>
<text text-anchor="middle" x="572.5" y="-253.2" font-family="Helvetica,sans-Serif" font-size="11.00">TABLE row 0</text>
</g>
<!-- y2015&#45;&gt;v2015 -->
<g id="edge3" class="edge">
<title>y2015&#45;&gt;v2015</title>
<path fill="none" stroke="#64748b" d="M334.23,-262C377.37,-262 464.05,-262 519.85,-262"/>
<polygon fill="#64748b" stroke="#64748b" points="519.89,-265.5 529.89,-262 519.89,-258.5 519.89,-265.5"/>
<text text-anchor="middle" x="432" y="-264.8" font-family="Helvetica,sans-Serif" font-size="9.00">amortization_amount_in_millions</text>
</g>
<!-- y2016 -->
<g id="node3" class="node">
<title>y2016</title>
<path fill="#f8fafc" stroke="#334155" d="M322,-158C322,-158 292,-158 292,-158 286,-158 280,-152 280,-146 280,-146 280,-134 280,-134 280,-128 286,-122 292,-122 292,-122 322,-122 322,-122 328,-122 334,-128 334,-134 334,-134 334,-146 334,-146 334,-152 328,-158 322,-158"/>
<text text-anchor="middle" x="307" y="-137.2" font-family="Helvetica,sans-Serif" font-size="11.00">2016</text>
</g>
<!-- v2016 -->
<g id="node8" class="node">
<title>v2016</title>
<path fill="#dcfce7" stroke="#16a34a" d="M603,-158C603,-158 542,-158 542,-158 536,-158 530,-152 530,-146 530,-146 530,-134 530,-134 530,-128 536,-122 542,-122 542,-122 603,-122 603,-122 609,-122 615,-128 615,-134 615,-134 615,-146 615,-146 615,-152 609,-158 603,-158"/>
<text text-anchor="middle" x="572.5" y="-143.2" font-family="Helvetica,sans-Serif" font-size="11.00">$45 million</text>
<text text-anchor="middle" x="572.5" y="-131.2" font-family="Helvetica,sans-Serif" font-size="11.00">TABLE row 1</text>
</g>
<!-- y2016&#45;&gt;v2016 -->
<g id="edge4" class="edge">
<title>y2016&#45;&gt;v2016</title>
<path fill="none" stroke="#64748b" d="M334.23,-140C377.37,-140 464.05,-140 519.85,-140"/>
<polygon fill="#64748b" stroke="#64748b" points="519.89,-143.5 529.89,-140 519.89,-136.5 519.89,-143.5"/>
<text text-anchor="middle" x="432" y="-142.8" font-family="Helvetica,sans-Serif" font-size="9.00">amortization_amount_in_millions</text>
</g>
<!-- y2017 -->
<g id="node4" class="node">
<title>y2017</title>
<path fill="#f8fafc" stroke="#334155" d="M322,-97C322,-97 292,-97 292,-97 286,-97 280,-91 280,-85 280,-85 280,-73 280,-73 280,-67 286,-61 292,-61 292,-61 322,-61 322,-61 328,-61 334,-67 334,-73 334,-73 334,-85 334,-85 334,-91 328,-97 322,-97"/>
<text text-anchor="middle" x="307" y="-76.2" font-family="Helvetica,sans-Serif" font-size="11.00">2017</text>
</g>
<!-- v2017 -->
<g id="node9" class="node">
<title>v2017</title>
<path fill="#dcfce7" stroke="#16a34a" d="M603,-97C603,-97 542,-97 542,-97 536,-97 530,-91 530,-85 530,-85 530,-73 530,-73 530,-67 536,-61 542,-61 542,-61 603,-61 603,-61 609,-61 615,-67 615,-73 615,-73 615,-85 615,-85 615,-91 609,-97 603,-97"/>
<text text-anchor="middle" x="572.5" y="-82.2" font-family="Helvetica,sans-Serif" font-size="11.00">$45 million</text>
<text text-anchor="middle" x="572.5" y="-70.2" font-family="Helvetica,sans-Serif" font-size="11.00">TABLE row 2</text>
</g>
<!-- y2017&#45;&gt;v2017 -->
<g id="edge5" class="edge">
<title>y2017&#45;&gt;v2017</title>
<path fill="none" stroke="#64748b" d="M334.23,-79C377.37,-79 464.05,-79 519.85,-79"/>
<polygon fill="#64748b" stroke="#64748b" points="519.89,-82.5 529.89,-79 519.89,-75.5 519.89,-82.5"/>
<text text-anchor="middle" x="432" y="-81.8" font-family="Helvetica,sans-Serif" font-size="9.00">amortization_amount_in_millions</text>
</g>
<!-- y2018 -->
<g id="node5" class="node">
<title>y2018</title>
<path fill="#f8fafc" stroke="#334155" d="M322,-36C322,-36 292,-36 292,-36 286,-36 280,-30 280,-24 280,-24 280,-12 280,-12 280,-6 286,0 292,0 292,0 322,0 322,0 328,0 334,-6 334,-12 334,-12 334,-24 334,-24 334,-30 328,-36 322,-36"/>
<text text-anchor="middle" x="307" y="-15.2" font-family="Helvetica,sans-Serif" font-size="11.00">2018</text>
</g>
<!-- v2018 -->
<g id="node10" class="node">
<title>v2018</title>
<path fill="#dcfce7" stroke="#16a34a" d="M603,-36C603,-36 542,-36 542,-36 536,-36 530,-30 530,-24 530,-24 530,-12 530,-12 530,-6 536,0 542,0 542,0 603,0 603,0 609,0 615,-6 615,-12 615,-12 615,-24 615,-24 615,-30 609,-36 603,-36"/>
<text text-anchor="middle" x="572.5" y="-21.2" font-family="Helvetica,sans-Serif" font-size="11.00">$45 million</text>
<text text-anchor="middle" x="572.5" y="-9.2" font-family="Helvetica,sans-Serif" font-size="11.00">TABLE row 3</text>
</g>
<!-- y2018&#45;&gt;v2018 -->
<g id="edge6" class="edge">
<title>y2018&#45;&gt;v2018</title>
<path fill="none" stroke="#64748b" d="M334.23,-18C377.37,-18 464.05,-18 519.85,-18"/>
<polygon fill="#64748b" stroke="#64748b" points="519.89,-21.5 529.89,-18 519.89,-14.5 519.89,-21.5"/>
<text text-anchor="middle" x="432" y="-20.8" font-family="Helvetica,sans-Serif" font-size="9.00">amortization_amount_in_millions</text>
</g>
<!-- v2019 -->
<g id="node11" class="node">
<title>v2019</title>
<path fill="#dcfce7" stroke="#16a34a" d="M603,-219C603,-219 542,-219 542,-219 536,-219 530,-213 530,-207 530,-207 530,-195 530,-195 530,-189 536,-183 542,-183 542,-183 603,-183 603,-183 609,-183 615,-189 615,-195 615,-195 615,-207 615,-207 615,-213 609,-219 603,-219"/>
<text text-anchor="middle" x="572.5" y="-204.2" font-family="Helvetica,sans-Serif" font-size="11.00">$44 million</text>
<text text-anchor="middle" x="572.5" y="-192.2" font-family="Helvetica,sans-Serif" font-size="11.00">TABLE row 4</text>
</g>
<!-- y2019&#45;&gt;v2019 -->
<g id="edge7" class="edge">
<title>y2019&#45;&gt;v2019</title>
<path fill="none" stroke="#64748b" d="M334.23,-201C377.37,-201 464.05,-201 519.85,-201"/>
<polygon fill="#64748b" stroke="#64748b" points="519.89,-204.5 529.89,-201 519.89,-197.5 519.89,-204.5"/>
<text text-anchor="middle" x="432" y="-203.8" font-family="Helvetica,sans-Serif" font-size="9.00">amortization_amount_in_millions</text>
</g>
<!-- avg -->
<g id="node12" class="node">
<title>avg</title>
<path fill="#fef3c7" stroke="#d97706" d="M952.78,-144.1C952.78,-144.1 903.07,-162.16 903.07,-162.16 897.43,-164.21 885.79,-166.26 879.79,-166.26 879.79,-166.26 759.25,-166.26 759.25,-166.26 753.25,-166.26 741.61,-164.21 735.97,-162.16 735.97,-162.16 686.26,-144.1 686.26,-144.1 680.62,-142.05 680.62,-137.95 686.26,-135.9 686.26,-135.9 735.97,-117.84 735.97,-117.84 741.61,-115.79 753.25,-113.74 759.25,-113.74 759.25,-113.74 879.79,-113.74 879.79,-113.74 885.79,-113.74 897.43,-115.79 903.07,-117.84 903.07,-117.84 952.78,-135.9 952.78,-135.9 958.42,-137.95 958.42,-142.05 952.78,-144.1"/>
<text text-anchor="middle" x="819.52" y="-143.2" font-family="Helvetica,sans-Serif" font-size="11.00">v5 = table_average</text>
<text text-anchor="middle" x="819.52" y="-131.2" font-family="Helvetica,sans-Serif" font-size="11.00">(45 + 45 + 45 + 45 + 44) / 5</text>
</g>
<!-- v2015&#45;&gt;avg -->
<g id="edge8" class="edge">
<title>v2015&#45;&gt;avg</title>
<path fill="none" stroke="#64748b" d="M609.65,-244C648.34,-224.74 710.41,-193.83 756.84,-170.71"/>
<polygon fill="#64748b" stroke="#64748b" points="758.52,-173.79 765.91,-166.2 755.4,-167.52 758.52,-173.79"/>
<text text-anchor="middle" x="645" y="-231.8" font-family="Helvetica,sans-Serif" font-size="9.00">v0</text>
</g>
<!-- v2016&#45;&gt;avg -->
<g id="edge9" class="edge">
<title>v2016&#45;&gt;avg</title>
<path fill="none" stroke="#64748b" d="M615.06,-140C629.46,-140 646.57,-140 664.64,-140"/>
<polygon fill="#64748b" stroke="#64748b" points="664.78,-143.5 674.78,-140 664.78,-136.5 664.78,-143.5"/>
<text text-anchor="middle" x="645" y="-142.8" font-family="Helvetica,sans-Serif" font-size="9.00">v1</text>
</g>
<!-- v2017&#45;&gt;avg -->
<g id="edge10" class="edge">
<title>v2017&#45;&gt;avg</title>
<path fill="none" stroke="#64748b" d="M615.06,-89.35C644.71,-96.73 685.79,-106.96 723.28,-116.29"/>
<polygon fill="#64748b" stroke="#64748b" points="722.69,-119.75 733.24,-118.77 724.38,-112.96 722.69,-119.75"/>
<text text-anchor="middle" x="645" y="-99.8" font-family="Helvetica,sans-Serif" font-size="9.00">v2</text>
</g>
<!-- v2018&#45;&gt;avg -->
<g id="edge11" class="edge">
<title>v2018&#45;&gt;avg</title>
<path fill="none" stroke="#64748b" d="M609.65,-36C648.34,-55.26 710.41,-86.17 756.84,-109.29"/>
<polygon fill="#64748b" stroke="#64748b" points="755.4,-112.48 765.91,-113.8 758.52,-106.21 755.4,-112.48"/>
<text text-anchor="middle" x="645" y="-56.8" font-family="Helvetica,sans-Serif" font-size="9.00">v3</text>
</g>
<!-- v2019&#45;&gt;avg -->
<g id="edge12" class="edge">
<title>v2019&#45;&gt;avg</title>
<path fill="none" stroke="#64748b" d="M615.06,-190.65C644.71,-183.27 685.79,-173.04 723.28,-163.71"/>
<polygon fill="#64748b" stroke="#64748b" points="724.38,-167.04 733.24,-161.23 722.69,-160.25 724.38,-167.04"/>
<text text-anchor="middle" x="645" y="-186.8" font-family="Helvetica,sans-Serif" font-size="9.00">v4</text>
</g>
<!-- answer -->
<g id="node13" class="node">
<title>answer</title>
<path fill="#fee2e2" stroke="#dc2626" stroke-width="2" d="M1147.04,-158C1147.04,-158 1061.04,-158 1061.04,-158 1055.04,-158 1049.04,-152 1049.04,-146 1049.04,-146 1049.04,-134 1049.04,-134 1049.04,-128 1055.04,-122 1061.04,-122 1061.04,-122 1147.04,-122 1147.04,-122 1153.04,-122 1159.04,-128 1159.04,-134 1159.04,-134 1159.04,-146 1159.04,-146 1159.04,-152 1153.04,-158 1147.04,-158"/>
<text text-anchor="middle" x="1104.04" y="-143.2" font-family="Helvetica,sans-Serif" font-size="11.00">Executed answer</text>
<text text-anchor="middle" x="1104.04" y="-131.2" font-family="Helvetica,sans-Serif" font-size="11.00">44.8 million</text>
</g>
<!-- avg&#45;&gt;answer -->
<g id="edge13" class="edge">
<title>avg&#45;&gt;answer</title>
<path fill="none" stroke="#dc2626" stroke-width="2" d="M964.26,-140C990.51,-140 1016.63,-140 1039.02,-140"/>
<polygon fill="#dc2626" stroke="#dc2626" stroke-width="2" points="1039.03,-143.5 1049.03,-140 1039.03,-136.5 1039.03,-143.5"/>
<text text-anchor="middle" x="1006.54" y="-142.8" font-family="Helvetica,sans-Serif" font-size="9.00">execute</text>
</g>
</g>
</svg>
