<svg xmlns="http://www.w3.org/2000/svg" width="1200" height="760" viewBox="0 0 1200 760">
  <rect width="1200" height="760" fill="#ffffff"/>
  <style>
    text { font-family: "DejaVu Sans"; fill: #1f2937; }
    .title { font-size: 28px; font-weight: 700; }
    .subtitle { font-size: 16px; fill: #52606d; }
    .label { font-size: 16px; }
    .small { font-size: 14px; fill: #52606d; }
    .value { font-size: 15px; font-weight: 700; }
    .panel { font-size: 19px; font-weight: 700; fill: #173b57; }
  </style>
  <text x="600" y="42" text-anchor="middle" class="title">HybridQA — kết quả hiện có trong repository</text>
  <text x="600" y="70" text-anchor="middle" class="subtitle">EM và token-F1 (%); các panel khác protocol không được so sánh trực tiếp</text>

  <rect x="36" y="96" width="1128" height="440" rx="14" fill="#f8fafc" stroke="#cad5df"/>
  <text x="60" y="130" class="panel">A. Controlled shard01 — 200 câu, cùng input/model/config</text>
  <text x="60" y="157" class="small">HybridQA traced dev; DeepSeek-V4.1-Flash-Benchmark; 0 failed cho cả 4 phương pháp</text>

  <line x1="290" y1="185" x2="930" y2="185" stroke="#94a3b8"/>
  <g class="small" text-anchor="middle">
    <text x="290" y="178">0</text><text x="370" y="178">10</text><text x="450" y="178">20</text><text x="530" y="178">30</text>
    <text x="610" y="178">40</text><text x="690" y="178">50</text><text x="770" y="178">60</text><text x="850" y="178">70</text><text x="930" y="178">80</text>
  </g>
  <g stroke="#e2e8f0">
    <line x1="290" y1="188" x2="290" y2="505"/><line x1="370" y1="188" x2="370" y2="505"/><line x1="450" y1="188" x2="450" y2="505"/>
    <line x1="530" y1="188" x2="530" y2="505"/><line x1="610" y1="188" x2="610" y2="505"/><line x1="690" y1="188" x2="690" y2="505"/>
    <line x1="770" y1="188" x2="770" y2="505"/><line x1="850" y1="188" x2="850" y2="505"/><line x1="930" y1="188" x2="930" y2="505"/>
  </g>

  <g class="label">
    <text x="60" y="234">Direct LLM</text>
    <text x="60" y="309">Online-KG path text</text>
    <text x="60" y="384">Graph retrieval, no path</text>
    <text x="60" y="459">Flat-table BM25</text>
  </g>
  <g>
    <rect x="290" y="210" width="508" height="23" rx="3" fill="#2563eb"/><text x="806" y="227" class="value">EM 63.50</text>
    <rect x="290" y="239" width="573" height="23" rx="3" fill="#16a085"/><text x="871" y="256" class="value">F1 71.63</text>
    <rect x="290" y="285" width="428" height="23" rx="3" fill="#2563eb"/><text x="726" y="302" class="value">EM 53.50</text>
    <rect x="290" y="314" width="485" height="23" rx="3" fill="#16a085"/><text x="783" y="331" class="value">F1 60.64</text>
    <rect x="290" y="360" width="404" height="23" rx="3" fill="#2563eb"/><text x="702" y="377" class="value">EM 50.50</text>
    <rect x="290" y="389" width="457" height="23" rx="3" fill="#16a085"/><text x="755" y="406" class="value">F1 57.07</text>
    <rect x="290" y="435" width="312" height="23" rx="3" fill="#2563eb"/><text x="610" y="452" class="value">EM 39.00</text>
    <rect x="290" y="464" width="375" height="23" rx="3" fill="#16a085"/><text x="673" y="481" class="value">F1 46.90</text>
  </g>

  <rect x="36" y="558" width="1128" height="156" rx="14" fill="#fff8e8" stroke="#e3bf65"/>
  <text x="60" y="592" class="panel">B. Online-KG executable pilot — 100 câu, run riêng</text>
  <text x="60" y="621" class="label">EM 9.00% · F1 12.38% · 18 failed · 11.54 calls/câu · 91.10 s/câu</text>
  <text x="60" y="653" class="small">top-k=5, second-stage-k=2, N=1, không replan. File không ghi model/provider;</text>
  <text x="60" y="678" class="small">không ghép vào panel A để kết luận hơn/kém vì khác sample và cấu hình.</text>
</svg>
